<svg version="1.1" id="Layer_1" xmlns="http://www.w3.org/2000/svg" xmlns:xlink="http://www.w3.org/1999/xlink" x="0px" y="0px"
	 width="100%" viewBox="0 0 512 512" enable-background="new 0 0 512 512" xml:space="preserve">
<path fill="#761D36" opacity="1.000000" stroke="none" 
	d="
M403.000000,1.000000 
	C405.700012,1.000000 408.400024,1.000000 411.642548,1.340794 
	C415.697510,4.174870 416.865784,7.824926 416.973755,11.867583 
	C417.096802,16.473722 417.002228,21.085672 417.002228,25.997423 
	C425.679321,25.997423 433.819397,25.825380 441.947205,26.066425 
	C446.335327,26.196562 450.893402,26.402678 455.045990,27.660236 
	C472.770111,33.027725 480.837280,45.348694 480.867706,62.724129 
	C481.109650,200.872513 481.056458,339.021576 480.817535,477.169983 
	C480.807343,483.079926 478.732910,489.243073 476.491791,494.836212 
	C472.476196,504.857819 463.571655,509.498322 454.000000,513.000000 
	C322.979095,513.000000 191.958206,513.000000 60.334747,512.640259 
	C52.647018,511.191681 46.846123,507.354828 42.234348,502.366028 
	C35.341652,494.909821 33.009899,485.425537 33.008591,475.408173 
	C32.991703,346.105316 32.973412,216.802460 33.040794,87.499649 
	C33.046486,76.580124 33.278645,65.630882 34.125660,54.751499 
	C34.750313,46.728157 39.142403,40.317261 45.142624,34.944649 
	C53.366032,27.581381 63.362385,26.163263 73.762444,26.018219 
	C81.376717,25.912027 88.993660,25.997419 96.702133,25.997419 
	C97.966240,17.256723 94.378586,7.894535 102.000000,1.000000 
	C104.700012,1.000000 107.400032,1.000000 110.646492,1.345333 
	C114.082764,4.036038 115.266434,6.976664 115.066216,10.770043 
	C114.805840,15.703287 115.002571,20.660656 115.002571,25.770800 
	C142.838654,25.770800 170.211304,25.770800 197.997437,25.770800 
	C197.997437,20.769245 198.281784,15.960864 197.916107,11.202434 
	C197.562363,6.599068 199.317459,3.410100 203.000000,1.000000 
	C205.370178,1.000000 207.740356,1.000000 210.657608,1.351871 
	C214.947662,3.956209 215.973221,7.539865 215.996155,11.584088 
	C216.023102,16.335232 216.002472,21.086645 216.002472,25.650223 
	C243.739594,25.650223 270.784912,25.650223 297.997467,25.650223 
	C297.997467,21.485378 298.171600,17.656866 297.954803,13.850614 
	C297.663055,8.728256 298.984894,4.368677 303.000000,1.000000 
	C305.370178,1.000000 307.740356,1.000000 310.668304,1.344418 
	C314.764404,3.065292 316.047668,5.800402 316.015137,9.423772 
	C315.966370,14.854348 316.002472,20.285686 316.002472,25.718014 
	C343.947571,25.718014 371.319336,25.718014 398.997467,25.718014 
	C398.997467,21.642670 399.146851,17.835867 398.960205,14.045609 
	C398.719604,9.159923 398.976379,4.522663 403.000000,1.000000 
M108.196144,102.942909 
	C95.223106,103.031960 85.978745,96.250732 82.684273,84.228592 
	C79.752609,73.530396 84.661644,63.097942 95.489342,56.668495 
	C96.561729,56.031712 97.743988,54.659824 97.866348,53.520752 
	C98.195709,50.454491 97.978912,47.329563 97.978912,44.008499 
	C86.852303,44.008499 76.376373,43.998428 65.900558,44.028187 
	C65.088768,44.030491 64.260361,44.250679 63.469086,44.473854 
	C55.856747,46.620857 50.946564,52.585739 50.943180,60.498714 
	C50.888237,188.970963 50.899914,317.443237 50.898388,445.915497 
	C50.898384,446.248444 50.927242,446.581329 50.939877,446.914337 
	C51.135551,452.073029 53.116150,456.771301 57.587093,459.021729 
	C61.848656,461.166748 66.912491,462.793549 71.627525,462.803497 
	C171.272507,463.013733 270.918030,462.962708 370.563446,462.962616 
	C395.058228,462.962616 419.553009,462.987061 444.047729,462.949310 
	C453.513184,462.934753 460.224792,458.556671 462.412323,450.635895 
	C463.190155,447.819519 463.106537,444.714722 463.107269,441.741516 
	C463.138000,317.434692 462.937897,193.127228 463.341858,68.821716 
	C463.403351,49.889717 456.972748,42.630554 438.422974,43.879829 
	C431.036652,44.377270 423.588867,43.961555 416.226440,43.961555 
	C416.226440,48.214710 415.523010,51.915016 416.502716,55.097130 
	C417.049103,56.871819 420.501251,57.642250 422.459595,59.111004 
	C430.636871,65.244019 434.025024,76.086380 430.930969,85.848106 
	C427.794067,95.744972 418.393860,102.813240 408.131866,102.991425 
	C397.224060,103.180824 387.136719,95.760223 384.173462,85.366692 
	C381.072723,74.491096 385.593475,63.255356 395.258972,57.357933 
	C396.739838,56.454372 398.577271,54.975025 398.853363,53.500496 
	C399.414398,50.504570 399.021027,47.329926 399.021027,44.298313 
	C370.964752,44.298313 343.563843,44.298313 315.891113,44.298313 
	C315.891113,45.780354 316.015106,46.945942 315.869537,48.076832 
	C315.253326,52.864033 316.497223,56.008904 321.175537,58.826714 
	C330.371399,64.365517 333.670685,75.592735 330.391815,85.953049 
	C327.144897,96.212234 317.322296,103.237633 306.567383,102.992966 
	C295.791168,102.747818 286.369171,95.106171 283.468903,84.259094 
	C280.786285,74.226051 285.410034,63.307354 294.615967,57.605518 
	C296.179779,56.636951 298.350708,55.346413 298.638519,53.888287 
	C299.256165,50.759426 298.827942,47.424126 298.827942,44.370739 
	C270.498993,44.370739 242.935608,44.370739 215.407410,44.370739 
	C214.739853,53.672276 214.739868,53.672264 221.704224,59.180752 
	C230.189865,65.892509 233.411789,76.986298 229.770462,86.954575 
	C226.217850,96.679993 216.050583,103.422905 205.619858,102.971191 
	C195.287292,102.523727 185.580231,94.647148 183.140686,84.730988 
	C180.452652,73.804832 184.939941,63.207104 194.594528,57.290642 
	C195.967590,56.449207 197.717804,55.083595 197.940857,53.736603 
	C198.443558,50.700916 198.098679,47.524872 198.098679,44.220131 
	C170.200134,44.220131 142.802063,44.220131 115.353317,44.220131 
	C114.355270,50.659130 113.765251,56.525013 121.410172,59.371319 
	C123.103035,60.001591 124.412613,61.971603 125.623756,63.537384 
	C137.457809,78.836632 128.028641,100.372620 108.196144,102.942909 
M67.744614,479.953857 
	C62.268436,478.872528 56.792255,477.791199 51.138268,476.674744 
	C50.127808,481.725677 51.598961,486.496429 55.257801,490.501831 
	C58.933369,494.525635 63.657505,496.052521 69.140213,496.050201 
	C194.437149,495.997498 319.734100,496.009369 445.031067,496.008392 
	C445.864136,496.008392 446.699951,496.038452 447.529816,495.983459 
	C457.620270,495.314789 464.582214,486.099792 462.333160,475.757233 
	C453.744080,480.596802 444.383545,479.973755 435.087433,479.972534 
	C312.956207,479.956177 190.825012,479.960388 67.744614,479.953857 
M100.481300,75.032089 
	C98.418404,79.288147 99.790695,82.917175 103.674973,84.673561 
	C106.658226,86.022530 110.559509,85.573372 112.312035,82.013046 
	C113.817268,78.955101 113.906334,75.450874 110.608063,73.206810 
	C107.196579,70.885704 103.843826,71.202759 100.481300,75.032089 
M202.068008,73.445053 
	C201.680435,74.143051 201.230988,74.814278 200.915512,75.543465 
	C199.088501,79.766533 200.047302,82.645172 203.804428,84.327164 
	C207.771866,86.103310 211.624100,85.054871 212.796509,81.068230 
	C213.450394,78.844833 213.061005,74.593910 211.734009,73.882477 
	C209.298569,72.576782 205.821625,73.213737 202.068008,73.445053 
M307.406097,84.996864 
	C311.988617,84.749908 314.312958,82.209312 313.920685,77.755028 
	C313.567444,73.744011 310.887024,72.109589 306.895966,71.946716 
	C302.412384,71.763756 300.449158,74.991341 300.296295,78.112778 
	C300.130249,81.503326 301.874420,85.100204 307.406097,84.996864 
M401.002655,78.504539 
	C400.917938,83.042953 403.221954,84.927414 407.675476,85.054466 
	C412.174286,85.182823 414.160858,82.282806 414.406799,78.805717 
	C414.631622,75.627434 412.857513,72.486526 408.990479,72.050049 
	C404.814178,71.578651 401.364471,72.538940 401.002655,78.504539 
z"/>
<path fill="#FFFFFF" opacity="1.000000" stroke="none" 
	d="
M101.531342,1.000000 
	C94.378586,7.894535 97.966240,17.256723 96.702133,25.997419 
	C88.993660,25.997419 81.376717,25.912027 73.762444,26.018219 
	C63.362385,26.163263 53.366032,27.581381 45.142624,34.944649 
	C39.142403,40.317261 34.750313,46.728157 34.125660,54.751499 
	C33.278645,65.630882 33.046486,76.580124 33.040794,87.499649 
	C32.973412,216.802460 32.991703,346.105316 33.008591,475.408173 
	C33.009899,485.425537 35.341652,494.909821 42.234348,502.366028 
	C46.846123,507.354828 52.647018,511.191681 59.866089,512.640259 
	C40.346142,513.000000 20.692287,513.000000 1.019215,513.000000 
	C1.019215,342.457306 1.019215,171.914612 1.019215,1.000000 
	C34.353306,1.000000 67.707993,1.000000 101.531342,1.000000 
z"/>
<path fill="#FFFFFF" opacity="1.000000" stroke="none" 
	d="
M454.468658,513.000000 
	C463.571655,509.498322 472.476196,504.857819 476.491791,494.836212 
	C478.732910,489.243073 480.807343,483.079926 480.817535,477.169983 
	C481.056458,339.021576 481.109650,200.872513 480.867706,62.724129 
	C480.837280,45.348694 472.770111,33.027725 455.045990,27.660236 
	C450.893402,26.402678 446.335327,26.196562 441.947205,26.066425 
	C433.819397,25.825380 425.679321,25.997423 417.002228,25.997423 
	C417.002228,21.085672 417.096802,16.473722 416.973755,11.867583 
	C416.865784,7.824926 415.697510,4.174870 412.092529,1.340794 
	C445.644745,1.000000 479.289459,1.000000 512.949707,1.000000 
	C512.949707,171.666672 512.949707,342.333344 512.949707,513.000000 
	C493.578766,513.000000 474.258026,513.000000 454.468658,513.000000 
z"/>
<path fill="#FFFFFF" opacity="1.000000" stroke="none" 
	d="
M402.531342,1.000000 
	C398.976379,4.522663 398.719604,9.159923 398.960205,14.045609 
	C399.146851,17.835867 398.997467,21.642670 398.997467,25.718014 
	C371.319336,25.718014 343.947571,25.718014 316.002472,25.718014 
	C316.002472,20.285686 315.966370,14.854348 316.015137,9.423772 
	C316.047668,5.800402 314.764404,3.065292 311.113037,1.344418 
	C341.354218,1.000000 371.708466,1.000000 402.531342,1.000000 
z"/>
<path fill="#FFFFFF" opacity="1.000000" stroke="none" 
	d="
M202.531342,1.000000 
	C199.317459,3.410100 197.562363,6.599068 197.916107,11.202434 
	C198.281784,15.960864 197.997437,20.769245 197.997437,25.770800 
	C170.211304,25.770800 142.838654,25.770800 115.002571,25.770800 
	C115.002571,20.660656 114.805840,15.703287 115.066216,10.770043 
	C115.266434,6.976664 114.082764,4.036038 111.096466,1.345333 
	C141.354233,1.000000 171.708450,1.000000 202.531342,1.000000 
z"/>
<path fill="#FFFFFF" opacity="1.000000" stroke="none" 
	d="
M302.531342,1.000000 
	C298.984894,4.368677 297.663055,8.728256 297.954803,13.850614 
	C298.171600,17.656866 297.997467,21.485378 297.997467,25.650223 
	C270.784912,25.650223 243.739594,25.650223 216.002472,25.650223 
	C216.002472,21.086645 216.023102,16.335232 215.996155,11.584088 
	C215.973221,7.539865 214.947662,3.956209 211.102341,1.351871 
	C241.354233,1.000000 271.708466,1.000000 302.531342,1.000000 
z"/>
<path fill="#FFC9D8" opacity="1.000000" stroke="none" 
	d="
M108.627983,102.913528 
	C128.028641,100.372620 137.457809,78.836632 125.623756,63.537384 
	C124.412613,61.971603 123.103035,60.001591 121.410172,59.371319 
	C113.765251,56.525013 114.355270,50.659130 115.353317,44.220131 
	C142.802063,44.220131 170.200134,44.220131 198.098679,44.220131 
	C198.098679,47.524872 198.443558,50.700916 197.940857,53.736603 
	C197.717804,55.083595 195.967590,56.449207 194.594528,57.290642 
	C184.939941,63.207104 180.452652,73.804832 183.140686,84.730988 
	C185.580231,94.647148 195.287292,102.523727 205.619858,102.971191 
	C216.050583,103.422905 226.217850,96.679993 229.770462,86.954575 
	C233.411789,76.986298 230.189865,65.892509 221.704224,59.180752 
	C214.739868,53.672264 214.739853,53.672276 215.407410,44.370739 
	C242.935608,44.370739 270.498993,44.370739 298.827942,44.370739 
	C298.827942,47.424126 299.256165,50.759426 298.638519,53.888287 
	C298.350708,55.346413 296.179779,56.636951 294.615967,57.605518 
	C285.410034,63.307354 280.786285,74.226051 283.468903,84.259094 
	C286.369171,95.106171 295.791168,102.747818 306.567383,102.992966 
	C317.322296,103.237633 327.144897,96.212234 330.391815,85.953049 
	C333.670685,75.592735 330.371399,64.365517 321.175537,58.826714 
	C316.497223,56.008904 315.253326,52.864033 315.869537,48.076832 
	C316.015106,46.945942 315.891113,45.780354 315.891113,44.298313 
	C343.563843,44.298313 370.964752,44.298313 399.021027,44.298313 
	C399.021027,47.329926 399.414398,50.504570 398.853363,53.500496 
	C398.577271,54.975025 396.739838,56.454372 395.258972,57.357933 
	C385.593475,63.255356 381.072723,74.491096 384.173462,85.366692 
	C387.136719,95.760223 397.224060,103.180824 408.131866,102.991425 
	C418.393860,102.813240 427.794067,95.744972 430.930969,85.848106 
	C434.025024,76.086380 430.636871,65.244019 422.459595,59.111004 
	C420.501251,57.642250 417.049103,56.871819 416.502716,55.097130 
	C415.523010,51.915016 416.226440,48.214710 416.226440,43.961555 
	C423.588867,43.961555 431.036652,44.377270 438.422974,43.879829 
	C456.972748,42.630554 463.403351,49.889717 463.341858,68.821716 
	C462.937897,193.127228 463.138000,317.434692 463.107269,441.741516 
	C463.106537,444.714722 463.190155,447.819519 462.412323,450.635895 
	C460.224792,458.556671 453.513184,462.934753 444.047729,462.949310 
	C419.553009,462.987061 395.058228,462.962616 370.563446,462.962616 
	C270.918030,462.962708 171.272507,463.013733 71.627525,462.803497 
	C66.912491,462.793549 61.848656,461.166748 57.587093,459.021729 
	C53.116150,456.771301 51.135551,452.073029 50.939877,446.914337 
	C50.927242,446.581329 50.898384,446.248444 50.898388,445.915497 
	C50.899914,317.443237 50.888237,188.970963 50.943180,60.498714 
	C50.946564,52.585739 55.856747,46.620857 63.469086,44.473854 
	C64.260361,44.250679 65.088768,44.030491 65.900558,44.028187 
	C76.376373,43.998428 86.852303,44.008499 97.978912,44.008499 
	C97.978912,47.329563 98.195709,50.454491 97.866348,53.520752 
	C97.743988,54.659824 96.561729,56.031712 95.489342,56.668495 
	C84.661644,63.097942 79.752609,73.530396 82.684273,84.228592 
	C85.978745,96.250732 95.223106,103.031960 108.627983,102.913528 
M137.539215,163.011124 
	C135.021652,165.189392 132.333893,167.200989 130.012497,169.571365 
	C102.884521,197.271622 95.573860,230.463730 103.658447,267.529419 
	C110.821136,300.368408 128.870697,327.211273 151.568604,351.231995 
	C180.570465,381.924042 215.281631,404.946350 251.857300,425.434845 
	C255.393112,427.415466 258.636047,427.398438 262.177734,425.414337 
	C298.753479,404.924286 333.440582,381.879791 362.464600,351.206909 
	C383.398621,329.083527 400.282410,304.414124 408.576691,274.720978 
	C417.182037,243.914154 415.504242,213.979462 397.720306,186.582016 
	C380.014587,159.305145 354.809479,144.192368 321.713837,145.271759 
	C297.632355,146.057159 278.362274,157.647125 262.535004,175.353516 
	C260.711731,177.393280 258.887878,179.432526 256.983246,181.562622 
	C255.947861,180.478226 255.350708,179.900040 254.807938,179.274689 
	C253.607712,177.891800 252.474716,176.448990 251.244797,175.093719 
	C234.404938,156.537766 214.018677,145.176102 188.455963,145.116714 
	C169.744843,145.073273 152.985733,151.270264 137.539215,163.011124 
z"/>
<path fill="#FF91B9" opacity="1.000000" stroke="none" 
	d="
M68.219208,479.956665 
	C190.825012,479.960388 312.956207,479.956177 435.087433,479.972534 
	C444.383545,479.973755 453.744080,480.596802 462.333160,475.757233 
	C464.582214,486.099792 457.620270,495.314789 447.529816,495.983459 
	C446.699951,496.038452 445.864136,496.008392 445.031067,496.008392 
	C319.734100,496.009369 194.437149,495.997498 69.140213,496.050201 
	C63.657505,496.052521 58.933369,494.525635 55.257801,490.501831 
	C51.598961,486.496429 50.127808,481.725677 51.138268,476.674744 
	C56.792255,477.791199 62.268436,478.872528 68.219208,479.956665 
z"/>
<path fill="#FFFFFF" opacity="1.000000" stroke="none" 
	d="
M100.753357,74.752007 
	C103.843826,71.202759 107.196579,70.885704 110.608063,73.206810 
	C113.906334,75.450874 113.817268,78.955101 112.312035,82.013046 
	C110.559509,85.573372 106.658226,86.022530 103.674973,84.673561 
	C99.790695,82.917175 98.418404,79.288147 100.753357,74.752007 
z"/>
<path fill="#FFFFFF" opacity="1.000000" stroke="none" 
	d="
M202.423447,73.242935 
	C205.821625,73.213737 209.298569,72.576782 211.734009,73.882477 
	C213.061005,74.593910 213.450394,78.844833 212.796509,81.068230 
	C211.624100,85.054871 207.771866,86.103310 203.804428,84.327164 
	C200.047302,82.645172 199.088501,79.766533 200.915512,75.543465 
	C201.230988,74.814278 201.680435,74.143051 202.423447,73.242935 
z"/>
<path fill="#FFFFFF" opacity="1.000000" stroke="none" 
	d="
M306.996643,84.996864 
	C301.874420,85.100204 300.130249,81.503326 300.296295,78.112778 
	C300.449158,74.991341 302.412384,71.763756 306.895966,71.946716 
	C310.887024,72.109589 313.567444,73.744011 313.920685,77.755028 
	C314.312958,82.209312 311.988617,84.749908 306.996643,84.996864 
z"/>
<path fill="#FFFFFF" opacity="1.000000" stroke="none" 
	d="
M401.002808,78.089737 
	C401.364471,72.538940 404.814178,71.578651 408.990479,72.050049 
	C412.857513,72.486526 414.631622,75.627434 414.406799,78.805717 
	C414.160858,82.282806 412.174286,85.182823 407.675476,85.054466 
	C403.221954,84.927414 400.917938,83.042953 401.002808,78.089737 
z"/>
<path fill="#761E37" opacity="1.000000" stroke="none" 
	d="
M137.823059,162.797058 
	C152.985733,151.270264 169.744843,145.073273 188.455963,145.116714 
	C214.018677,145.176102 234.404938,156.537766 251.244797,175.093719 
	C252.474716,176.448990 253.607712,177.891800 254.807938,179.274689 
	C255.350708,179.900040 255.947861,180.478226 256.983246,181.562622 
	C258.887878,179.432526 260.711731,177.393280 262.535004,175.353516 
	C278.362274,157.647125 297.632355,146.057159 321.713837,145.271759 
	C354.809479,144.192368 380.014587,159.305145 397.720306,186.582016 
	C415.504242,213.979462 417.182037,243.914154 408.576691,274.720978 
	C400.282410,304.414124 383.398621,329.083527 362.464600,351.206909 
	C333.440582,381.879791 298.753479,404.924286 262.177734,425.414337 
	C258.636047,427.398438 255.393112,427.415466 251.857300,425.434845 
	C215.281631,404.946350 180.570465,381.924042 151.568604,351.231995 
	C128.870697,327.211273 110.821136,300.368408 103.658447,267.529419 
	C95.573860,230.463730 102.884521,197.271622 130.012497,169.571365 
	C132.333893,167.200989 135.021652,165.189392 137.823059,162.797058 
M304.999939,378.515198 
	C329.783966,360.510345 352.573730,340.410767 370.264740,315.144714 
	C385.070801,293.998901 395.500305,271.099884 396.175110,244.745575 
	C396.954224,214.316910 386.037018,189.237717 360.009125,172.609314 
	C338.432800,158.824860 315.694092,158.073715 293.198761,171.370544 
	C281.471405,178.302505 272.930267,188.388931 265.469208,199.592880 
	C260.138855,207.597229 254.086472,207.405655 248.460983,199.659958 
	C244.461578,194.153198 240.543762,188.496323 235.883347,183.575241 
	C205.457291,151.447327 161.289566,157.306168 136.145905,188.315186 
	C117.448662,211.374023 114.021736,237.763916 120.668655,265.905365 
	C126.898552,292.281250 141.097519,314.356415 158.939468,334.256012 
	C186.265717,364.733734 219.532074,387.503632 254.918991,407.428833 
	C256.108765,408.098755 258.485962,407.824432 259.730865,407.054443 
	C274.698730,397.796143 289.557190,388.360962 304.999939,378.515198 
z"/>
<path fill="#EEEDED" opacity="1.000000" stroke="none" 
	d="
M304.722076,378.743591 
	C289.557190,388.360962 274.698730,397.796143 259.730865,407.054443 
	C258.485962,407.824432 256.108765,408.098755 254.918991,407.428833 
	C219.532074,387.503632 186.265717,364.733734 158.939468,334.256012 
	C141.097519,314.356415 126.898552,292.281250 120.668655,265.905365 
	C114.021736,237.763916 117.448662,211.374023 136.145905,188.315186 
	C161.289566,157.306168 205.457291,151.447327 235.883347,183.575241 
	C240.543762,188.496323 244.461578,194.153198 248.460983,199.659958 
	C254.086472,207.405655 260.138855,207.597229 265.469208,199.592880 
	C272.930267,188.388931 281.471405,178.302505 293.198761,171.370544 
	C315.694092,158.073715 338.432800,158.824860 360.009125,172.609314 
	C386.037018,189.237717 396.954224,214.316910 396.175110,244.745575 
	C395.500305,271.099884 385.070801,293.998901 370.264740,315.144714 
	C352.573730,340.410767 329.783966,360.510345 304.722076,378.743591 
M321.614136,291.000519 
	C320.170990,290.921478 318.727844,290.842407 316.970215,290.746124 
	C316.970215,288.635712 316.970245,286.834686 316.970245,285.033691 
	C316.970123,263.052185 316.943970,241.070633 316.991272,219.089233 
	C317.001038,214.555283 315.812439,210.694199 311.178436,209.153809 
	C306.658722,207.651428 303.222778,209.579941 300.425690,213.300949 
	C280.446960,239.879150 260.417938,266.419586 240.357727,292.936371 
	C237.842651,296.260956 236.829025,299.707611 238.786789,303.547668 
	C240.703522,307.307251 244.126678,308.054199 248.048431,308.033752 
	C263.701508,307.952087 279.355225,307.994110 295.008728,308.009583 
	C296.602661,308.011139 298.196503,308.141968 299.995880,308.221954 
	C299.995880,318.500488 299.926697,328.310699 300.025543,338.119171 
	C300.073853,342.910919 303.484711,346.578552 307.837891,346.920563 
	C311.872253,347.237518 315.786438,344.140594 316.704071,339.685211 
	C317.034973,338.078461 316.955750,336.374878 316.959839,334.715240 
	C316.981445,325.942413 316.969971,317.169525 316.969971,307.991547 
	C322.088898,307.991547 326.718567,308.115326 331.338806,307.958771 
	C336.565948,307.781616 339.977112,304.384705 340.029388,299.626221 
	C340.081787,294.856232 336.702881,291.334412 331.570374,291.045929 
	C328.582092,290.877960 325.577209,291.005798 321.614136,291.000519 
M210.742065,208.772629 
	C199.031067,216.533127 187.145889,224.054779 175.806183,232.324417 
	C174.196793,233.498077 174.071640,238.985062 175.382095,241.244705 
	C176.695938,243.510147 180.571548,245.007690 183.505722,245.368973 
	C185.537598,245.619171 187.977982,243.529861 190.057892,242.206253 
	C194.283859,239.516937 198.389282,236.638245 203.163147,233.420563 
	C203.163147,236.313385 203.163162,238.139282 203.163162,239.965179 
	C203.163177,271.287567 203.161636,302.609955 203.167862,333.932343 
	C203.168152,335.429932 203.083084,336.950287 203.301300,338.420959 
	C204.072525,343.618408 207.721024,347.090759 212.096924,346.939514 
	C216.905853,346.773285 220.201065,343.202332 220.211746,337.431732 
	C220.285431,297.612518 220.289200,257.793091 220.219604,217.973877 
	C220.208832,211.809799 217.888702,209.561783 210.742065,208.772629 
z"/>
<path fill="#761D36" opacity="1.000000" stroke="none" 
	d="
M322.096954,291.000549 
	C325.577209,291.005798 328.582092,290.877960 331.570374,291.045929 
	C336.702881,291.334412 340.081787,294.856232 340.029388,299.626221 
	C339.977112,304.384705 336.565948,307.781616 331.338806,307.958771 
	C326.718567,308.115326 322.088898,307.991547 316.969971,307.991547 
	C316.969971,317.169525 316.981445,325.942413 316.959839,334.715240 
	C316.955750,336.374878 317.034973,338.078461 316.704071,339.685211 
	C315.786438,344.140594 311.872253,347.237518 307.837891,346.920563 
	C303.484711,346.578552 300.073853,342.910919 300.025543,338.119171 
	C299.926697,328.310699 299.995880,318.500488 299.995880,308.221954 
	C298.196503,308.141968 296.602661,308.011139 295.008728,308.009583 
	C279.355225,307.994110 263.701508,307.952087 248.048431,308.033752 
	C244.126678,308.054199 240.703522,307.307251 238.786789,303.547668 
	C236.829025,299.707611 237.842651,296.260956 240.357727,292.936371 
	C260.417938,266.419586 280.446960,239.879150 300.425690,213.300949 
	C303.222778,209.579941 306.658722,207.651428 311.178436,209.153809 
	C315.812439,210.694199 317.001038,214.555283 316.991272,219.089233 
	C316.943970,241.070633 316.970123,263.052185 316.970245,285.033691 
	C316.970245,286.834686 316.970215,288.635712 316.970215,290.746124 
	C318.727844,290.842407 320.170990,290.921478 322.096954,291.000549 
M276.189209,273.700165 
	C272.078552,279.217133 267.967896,284.734100 263.574615,290.630371 
	C276.149017,290.630371 287.986145,290.630371 299.678741,290.630371 
	C299.678741,274.723724 299.678741,259.191193 299.678741,242.698730 
	C291.614563,253.352524 284.125854,263.246094 276.189209,273.700165 
z"/>
<path fill="#771F37" opacity="1.000000" stroke="none" 
	d="
M211.151764,208.703247 
	C217.888702,209.561783 220.208832,211.809799 220.219604,217.973877 
	C220.289200,257.793091 220.285431,297.612518 220.211746,337.431732 
	C220.201065,343.202332 216.905853,346.773285 212.096924,346.939514 
	C207.721024,347.090759 204.072525,343.618408 203.301300,338.420959 
	C203.083084,336.950287 203.168152,335.429932 203.167862,333.932343 
	C203.161636,302.609955 203.163177,271.287567 203.163162,239.965179 
	C203.163162,238.139282 203.163147,236.313385 203.163147,233.420563 
	C198.389282,236.638245 194.283859,239.516937 190.057892,242.206253 
	C187.977982,243.529861 185.537598,245.619171 183.505722,245.368973 
	C180.571548,245.007690 176.695938,243.510147 175.382095,241.244705 
	C174.071640,238.985062 174.196793,233.498077 175.806183,232.324417 
	C187.145889,224.054779 199.031067,216.533127 211.151764,208.703247 
z"/>
<path fill="#EDECEC" opacity="1.000000" stroke="none" 
	d="
M276.413147,273.419922 
	C284.125854,263.246094 291.614563,253.352524 299.678741,242.698730 
	C299.678741,259.191193 299.678741,274.723724 299.678741,290.630371 
	C287.986145,290.630371 276.149017,290.630371 263.574615,290.630371 
	C267.967896,284.734100 272.078552,279.217133 276.413147,273.419922 
z"/>
</svg>